<?xml version="1.0" encoding="UTF-8" standalone="no"?>
<!-- Created with Inkscape (http://www.inkscape.org/) -->

<svg
   xmlns:dc="http://purl.org/dc/elements/1.1/"
   xmlns:cc="http://creativecommons.org/ns#"
   xmlns:rdf="http://www.w3.org/1999/02/22-rdf-syntax-ns#"
   xmlns:svg="http://www.w3.org/2000/svg"
   xmlns="http://www.w3.org/2000/svg"
   xmlns:sodipodi="http://sodipodi.sourceforge.net/DTD/sodipodi-0.dtd"
   xmlns:inkscape="http://www.inkscape.org/namespaces/inkscape"
   width="210mm"
   height="297mm"
   viewBox="0 0 210 297"
   version="1.1"
   id="svg21759"
   inkscape:version="0.92.4 (5da689c313, 2019-01-14)"
   sodipodi:docname="ugly covid.svg">
  <defs
     id="defs21753">
    <clipPath
       clipPathUnits="userSpaceOnUse"
       id="clipPath18">
      <path
         d="M 0,800 H 650 V 0 H 0 Z"
         id="path16"
         inkscape:connector-curvature="0" />
    </clipPath>
    <clipPath
       clipPathUnits="userSpaceOnUse"
       id="clipPath6722">
      <path
         d="M 0,800 H 650 V 0 H 0 Z"
         id="path6720"
         inkscape:connector-curvature="0" />
    </clipPath>
    <clipPath
       clipPathUnits="userSpaceOnUse"
       id="clipPath13902">
      <path
         d="M 0,800 H 650 V 0 H 0 Z"
         id="path13900"
         inkscape:connector-curvature="0" />
    </clipPath>
    <clipPath
       clipPathUnits="userSpaceOnUse"
       id="clipPath20442">
      <path
         d="M 0,800 H 650 V 0 H 0 Z"
         id="path20440"
         inkscape:connector-curvature="0" />
    </clipPath>
    <clipPath
       clipPathUnits="userSpaceOnUse"
       id="clipPath20662">
      <path
         d="M 0,800 H 650 V 0 H 0 Z"
         id="path20660"
         inkscape:connector-curvature="0" />
    </clipPath>
    <rect
       height="598.28"
       width="841.89"
       y="-3"
       id="a" />
  </defs>
  <sodipodi:namedview
     id="base"
     pagecolor="#ffffff"
     bordercolor="#666666"
     borderopacity="1.0"
     inkscape:pageopacity="0.0"
     inkscape:pageshadow="2"
     inkscape:zoom="0.28300781"
     inkscape:cx="465.30071"
     inkscape:cy="-340.21173"
     inkscape:document-units="mm"
     inkscape:current-layer="layer1"
     showgrid="false"
     showguides="true"
     inkscape:guide-bbox="true"
     inkscape:window-width="1920"
     inkscape:window-height="1001"
     inkscape:window-x="-9"
     inkscape:window-y="-9"
     inkscape:window-maximized="1"
     inkscape:snap-global="false">
    <sodipodi:guide
       position="176.69565,253.35726"
       orientation="0,1"
       id="guide22306"
       inkscape:locked="false" />
    <sodipodi:guide
       position="235.5942,43.94019"
       orientation="0,1"
       id="guide22308"
       inkscape:locked="false" />
  </sodipodi:namedview>
  <metadata
     id="metadata21756">
    <rdf:RDF>
      <cc:Work
         rdf:about="">
        <dc:format>image/svg+xml</dc:format>
        <dc:type
           rdf:resource="http://purl.org/dc/dcmitype/StillImage" />
        <dc:title></dc:title>
      </cc:Work>
    </rdf:RDF>
  </metadata>
  <g
     inkscape:label="Layer 1"
     inkscape:groupmode="layer"
     id="layer1">
    <path
       style="fill:#000000;stroke-width:0.05340536"
       d="m 94.16201,236.27458 c -0.75814,-0.16902 -1.456124,-0.5278 -2.152639,-1.10649 -0.250045,-0.20775 -0.51531,-0.37625 -0.67784,-0.4306 -0.528953,-0.17688 -0.986628,-0.62495 -1.224466,-1.19877 -0.07766,-0.18736 -0.10629,-0.39709 -0.114688,-0.83997 -0.0074,-0.40074 -0.04646,-0.71796 -0.120934,-0.988 -0.393711,-1.42679 -0.429018,-2.87218 -0.109516,-4.48325 0.24521,-1.23644 0.896239,-2.8654 1.679342,-4.20195 0.534847,-0.91285 1.232914,-1.90786 2.805482,-3.99891 2.108614,-2.80384 2.726454,-3.74086 3.439124,-5.2158 0.886052,-1.83379 1.188438,-3.15826 1.318222,-5.77386 0.06928,-1.39625 0.01084,-3.36614 -0.170501,-5.74978 -0.219861,-2.8896 -0.31584,-4.37765 -0.484009,-7.50346 -0.09481,-1.76237 -0.174588,-3.20752 -0.177281,-3.21144 -0.0025,-0.004 -0.0793,-0.023 -0.17027,-0.0425 l -0.165387,-0.0354 -0.03243,0.54985 c -0.151628,2.57004 -1.408159,4.56588 -3.47343,5.51714 -0.992177,0.45699 -1.631533,0.50931 -2.315086,0.18943 -0.690407,-0.32307 -1.312926,-1.13788 -1.532484,-2.00581 -0.0816,-0.32265 -0.16986,-1.22143 -0.32771,-3.33783 -0.156028,-2.09174 -0.387431,-3.53872 -0.728924,-4.55802 -0.317539,-0.9478 -0.577969,-1.41942 -0.844835,-1.52995 -0.20556,-0.0851 -0.467919,0.041 -0.74897,0.36037 -0.548835,0.62351 -0.743486,1.49712 -0.746671,3.35106 -0.0016,0.97817 -0.04975,1.26793 -0.292905,1.76487 -0.269459,0.55076 -0.984059,1.07189 -1.665978,1.21491 -0.161421,0.0339 -0.313386,0.0987 -0.337701,0.14416 -0.06206,0.116 -0.455121,2.5208 -0.584864,3.57843 -0.274032,2.23388 -0.406468,4.83312 -0.353725,6.9427 0.05623,2.24817 0.118932,2.83515 0.590849,5.52745 0.321882,1.83635 0.452782,2.86806 0.491282,3.8719 0.09027,2.35392 -0.486398,4.10702 -1.765692,5.3678 -0.912608,0.8994 -1.921294,1.46349 -3.72895,2.08539 -0.916286,0.31522 -1.645144,0.6024 -1.645144,0.64821 0,0.0149 0.106856,0.14606 0.237453,0.29132 0.477081,0.53063 0.637492,1.42082 0.407255,2.26004 l -0.114844,0.41863 0.130129,0.13862 c 0.232125,0.24729 0.559105,0.80455 0.670739,1.14315 0.233832,0.70923 0.196358,1.27817 -0.127666,1.93798 -0.324714,0.66121 -1.195604,1.3894 -2.102302,1.75782 -0.185219,0.0753 -0.49725,0.26953 -0.693403,0.43172 -0.682929,0.56462 -1.410655,0.79115 -2.149618,0.66912 -0.735483,-0.12147 -1.391322,-0.49139 -1.745466,-0.98453 -0.112331,-0.15641 -0.307221,-0.31391 -0.596308,-0.48188 -1.016689,-0.59074 -1.569317,-1.55974 -1.482277,-2.59909 0.08466,-1.01084 0.837742,-2.53832 1.697943,-3.44388 l 0.388367,-0.40884 0.0033,-0.89077 c 0.0033,-0.96801 0.05878,-1.27935 0.356771,-2.00191 0.458651,-1.11222 1.613153,-2.26362 2.930562,-2.9227 0.190924,-0.0955 0.842322,-0.33641 1.447554,-0.53534 1.675262,-0.55061 2.178653,-0.85078 2.489994,-1.48477 0.142516,-0.2902 0.147803,-0.33076 0.143567,-1.10237 -0.0049,-0.93732 -0.04096,-1.23579 -0.427696,-3.56686 -0.491619,-2.96294 -0.580743,-4.07973 -0.578445,-7.24773 0.0016,-2.23884 0.04351,-3.13549 0.239563,-5.12691 0.284793,-2.89309 0.891724,-6.15035 1.667201,-8.94747 l 0.281896,-1.01678 -0.286813,-0.26096 c -0.157744,-0.14353 -0.357419,-0.38609 -0.443728,-0.53901 -0.132674,-0.23511 -0.224737,-0.31721 -0.59598,-0.53157 -1.105379,-0.63827 -2.50372,-1.71667 -2.967461,-2.28853 -0.170016,-0.20965 -0.497973,-0.63352 -0.728809,-0.94193 -0.534552,-0.71424 -1.323114,-1.51206 -1.633832,-1.65302 -0.380822,-0.17278 -0.973141,-0.11401 -1.154198,0.11452 -0.11463,0.14468 -1.404818,4.13152 -1.40522,4.34229 -0.0016,0.60182 -0.230508,1.32517 -0.555206,1.75087 -0.07388,0.0968 -0.264673,0.55537 -0.424075,1.01901 -0.324066,0.9426 -0.540898,1.31253 -0.968651,1.65257 -0.305267,0.24266 -0.732971,0.44755 -1.035143,0.49587 -0.113358,0.0181 -0.233266,0.0498 -0.266471,0.0703 -0.03317,0.0205 -0.118891,0.35356 -0.190424,0.7401 -0.174334,0.94204 -0.323401,1.26214 -0.788127,1.69241 -0.352936,0.32675 -0.390493,0.3874 -1.048212,1.69262 -1.480521,2.93803 -3.185056,5.42401 -5.376048,7.84073 -0.567026,0.62544 -1.852124,1.91268 -2.551069,2.55531 -0.289186,0.2659 -0.309552,0.30123 -0.361671,0.62746 -0.326003,2.0407 -1.780543,3.60789 -3.872599,4.17251 -0.48763,0.1316 -0.618825,0.14407 -1.547498,0.14686 -1.571386,0.005 -2.201967,-0.18658 -2.946734,-0.89404 -1.544732,-1.46734 -2.25622,-3.65997 -1.783843,-5.49731 0.243117,-0.94556 0.654962,-1.64855 1.365432,-2.33063 1.033747,-0.99244 2.209798,-1.40857 4.006011,-1.41748 1.019136,-0.005 1.339598,0.062 2.079612,0.43458 l 0.37524,0.18897 0.753165,-0.77462 c 2.882786,-2.96491 5.196296,-6.62299 6.611761,-10.45439 l 0.246622,-0.66757 0.559918,-4.19814 c 0.467369,-3.50422 0.554738,-4.26778 0.528567,-4.61956 -0.02528,-0.3403 -0.0049,-0.53966 0.10643,-1.03559 0.679834,-3.03028 0.487777,-5.85108 -0.588797,-8.64759 -0.396723,-1.03053 -1.256794,-2.66511 -1.474602,-2.80249 -0.215552,-0.13597 -3.172982,0.50429 -4.791307,1.03727 -2.309126,0.7605 -4.725322,1.94267 -6.767682,3.31121 -2.794301,1.87241 -5.297069,4.27355 -7.429998,7.1283 -0.780747,1.04496 -1.263533,1.7779 -2.20218,3.3432 -1.881415,3.13744 -3.167219,4.89381 -4.668172,6.37658 -2.949344,2.9136 -6.243621,4.03247 -9.986149,3.39169 -0.729014,-0.12481 -1.647639,-0.33884 -3.446348,-0.80292 -0.690268,-0.17809 -1.52778,-0.3708 -1.861147,-0.42823 -0.715305,-0.12325 -1.907166,-0.1474 -1.85989,-0.0377 0.299414,0.69489 0.386421,0.93431 0.497168,1.36807 0.553818,2.16905 -0.242879,4.66775 -1.918486,6.01701 -0.542547,0.43687 -1.335698,0.83339 -2.041916,1.02081 -0.459719,0.122 -0.63902,0.14136 -1.307181,0.1412 -0.641613,0 -0.847633,-0.0209 -1.201621,-0.12076 -0.234982,-0.0663 -0.559425,-0.14075 -0.720977,-0.16545 -0.676838,-0.10344 -1.250539,-0.4459 -2.005822,-1.19736 -0.778916,-0.77497 -1.2593872,-1.54414 -1.5683402,-2.51071 -0.228473,-0.71478 -0.288981,-1.19534 -0.256884,-2.04028 0.04252,-1.11825 0.310111,-1.96516 0.8994,-2.84617 0.6809422,-1.01801 1.7299262,-1.78615 2.9592032,-2.16692 0.427811,-0.13252 0.520301,-0.18564 0.853635,-0.49019 1.136343,-1.03827 2.64718,-1.69696 4.646262,-2.02569 0.462288,-0.076 0.877637,-0.096 1.949294,-0.0939 1.711103,0.003 2.226528,0.0783 4.539463,0.65959 2.134062,0.53635 2.617932,0.61677 3.711671,0.61686 0.961205,0 1.383843,-0.0704 2.14878,-0.35837 1.607703,-0.60525 3.279559,-2.21281 4.800156,-4.61556 0.238421,-0.37673 0.836322,-1.38191 1.328655,-2.23372 1.331618,-2.30388 1.986054,-3.30137 3.159748,-4.81599 1.076533,-1.38924 2.746452,-3.18027 4.050217,-4.34398 3.888139,-3.47042 8.363908,-5.94913 13.258607,-7.34273 l 0.705561,-0.20089 -0.249167,-0.21932 c -0.542334,-0.47738 -0.875019,-1.22298 -0.876653,-1.96469 -0.0016,-0.55098 0.05434,-0.72783 0.505887,-1.61074 0.684324,-1.33805 0.863583,-2.09983 0.819074,-3.48066 -0.01872,-0.58146 -0.05902,-0.97393 -0.126032,-1.22829 l -0.09848,-0.3738 -0.347133,-0.0702 c -0.535496,-0.10827 -2.012897,-0.10432 -2.573184,0.007 -1.467822,0.2913 -2.781438,1.00074 -3.770857,2.03653 -0.838908,0.87822 -1.294646,1.63202 -2.358643,3.90129 -0.3994,0.85181 -0.876628,1.81311 -1.060509,2.13621 -0.862878,1.51618 -1.951396,2.71845 -3.242265,3.58107 -0.889139,0.59416 -1.719033,0.94151 -2.684515,1.12358 -0.582098,0.10977 -1.842693,0.0771 -2.334336,-0.0606 -0.301475,-0.0844 -0.356089,-0.0841 -0.923001,0.004 -2.504992,0.38984 -4.37319,-0.94856 -4.21355,-3.0186 0.01781,-0.23071 0.07872,-0.55956 0.13539,-0.73079 0.06625,-0.20009 0.111798,-0.52125 0.127551,-0.89879 0.04318,-1.03671 0.412698,-1.85332 1.186345,-2.6221 0.321324,-0.31932 0.539272,-0.48338 0.832915,-0.62697 0.642418,-0.31416 0.978009,-0.38065 1.860506,-0.36862 0.802821,0.011 1.223917,0.0839 1.604132,0.27787 0.550756,0.28097 1.416162,1.21459 1.796148,1.93771 0.104253,0.19838 0.207687,0.3607 0.229851,0.3607 0.06855,0 0.553564,-0.58954 0.853142,-1.03703 0.371464,-0.55489 0.646235,-1.1079 1.182946,-2.38091 0.550214,-1.30504 1.060541,-2.31429 1.552751,-3.07081 1.980546,-3.04409 4.88108,-4.99586 8.381238,-5.63974 0.584512,-0.10752 0.851082,-0.12362 2.142632,-0.12942 1.851452,-0.008 1.88377,-0.0181 1.778293,-0.53935 -0.02512,-0.12402 -0.08762,-0.17832 -0.325297,-0.28245 -0.300694,-0.13174 -0.657735,-0.43739 -1.726437,-1.47794 l -0.560755,-0.54598 -1.361844,-0.40381 c -4.118687,-1.22126 -7.498879,-2.0299 -9.078901,-2.17194 -2.921385,-0.26262 -5.597477,0.89958 -8.427898,3.66015 l -0.657407,0.64118 0.06337,0.40054 c 0.123808,0.78284 -0.0156,1.82066 -0.351754,2.6194 -0.39738,0.94416 -1.236198,1.86721 -2.104165,2.3155 -1.544707,0.79781 -3.416903,0.66719 -4.924079,-0.34357 -0.487498,-0.32693 -1.150536,-1.02693 -1.454941,-1.53602 -0.940256,-1.57253 -0.859652,-3.51232 0.207941,-5.00459 0.755743,-1.0564 1.995453,-1.75401 3.522963,-1.98249 0.293569,-0.0439 0.706447,-0.0748 0.917508,-0.0686 l 0.383753,0.0112 0.818156,-0.77529 c 0.960762,-0.91043 1.173784,-1.09952 1.886364,-1.67431 2.436374,-1.96525 4.761804,-3.04967 7.34002,-3.42285 0.836667,-0.1211 2.408685,-0.11978 3.394353,0.002 1.802124,0.22421 3.316958,0.58528 6.881409,1.64022 0.994344,0.29429 1.814388,0.52753 1.822318,0.51829 0.0082,-0.009 0.199585,-0.74976 0.425914,-1.64564 0.22633,-0.89588 0.734079,-2.89471 1.128332,-4.44185 0.39426,-1.54714 0.716824,-2.83888 0.716824,-2.87054 0,-0.0372 -0.184891,-0.0576 -0.523372,-0.0576 -2.764995,0 -5.787136,-0.79939 -8.277246,-2.18943 -5.00194,-2.79218 -8.297843,-7.32892 -10.428326,-14.35439 -0.835698,-2.75578 -1.322005,-4.92941 -2.453185,-10.96499 -0.963939,-5.143187 -1.493056,-7.519947 -2.137715,-9.602477 -1.719206,-5.55374 -4.302922,-9.47901 -7.742703,-11.76302 -0.765552,-0.50833 -1.922517,-1.07446 -2.712277,-1.32721 -2.162482,-0.692048 -4.521125,-0.69538 -6.55356,-0.009 -0.671592,0.22672 -0.616108,0.11871 -0.503201,0.97959 0.203984,1.55542 -0.546283,3.27481 -1.906444,4.369 -0.439516,0.35357 -1.297707,0.79811 -1.809372,0.93726 -0.406722,0.1106 -1.559254,0.16242 -1.9567732,0.088 -0.265027,-0.0497 -0.335599,-0.0426 -0.587459,0.0584 -0.433844,0.17387 -1.383762,0.16944 -1.853142,-0.009 -0.891823,-0.33839 -1.743332,-1.64037 -2.151359,-3.28949 -0.158786,-0.64176 -0.193403,-1.78199 -0.07552,-2.48706 0.112069,-0.67023 0.368476,-1.41091 0.680113,-1.964622 0.27789,-0.493753 1.142476,-1.385149 1.608885,-1.658795 1.006116,-0.590283 2.43245,-0.834262 3.6295812,-0.620845 l 0.415858,0.07413 0.465334,-0.274376 c 1.327817,-0.782948 3.19645,-1.414357 5.037189,-1.702073 0.659156,-0.103031 0.981744,-0.12036 2.264027,-0.121649 1.303322,-0.0016 1.601652,0.01461 2.323131,0.123857 3.27822,0.496405 6.180502,1.801303 8.571562,3.853866 0.671043,0.57604 1.836741,1.783877 2.38882,2.475167 2.813567,3.52303 4.837325,8.30439 6.422158,15.17309 0.439812,1.90613 0.743642,3.409537 1.473207,7.289827 0.882423,4.69326 1.337463,6.62807 2.116388,8.9988 1.632715,4.96935 4.15108,8.67809 7.279306,10.72003 1.459629,0.95278 3.135655,1.61694 4.83318,1.91525 0.830444,0.14593 2.425472,0.1748 3.182134,0.0576 l 0.458455,-0.071 0.228341,-0.59655 c 0.483952,-1.26429 1.253395,-2.70202 2.195186,-4.10171 0.342995,-0.50977 0.424313,-0.66501 0.366038,-0.69879 -1.44024,-0.8348 -2.314922,-1.47163 -3.231495,-2.35272 -1.664024,-1.5996 -2.925604,-3.57689 -3.619664,-5.67316 -0.07585,-0.22899 -0.148402,-0.31443 -0.509564,-0.59991 -1.161077,-0.91773 -1.819806,-2.25885 -1.819806,-3.70496 0,-1.91055 1.077961,-3.55762 2.899606,-4.43044 1.295762,-0.62086 2.841166,-0.66103 4.02999,-0.10474 1.186984,0.55543 2.059943,1.583 2.496586,2.93876 0.179687,0.55793 0.242682,1.59702 0.133963,2.20979 -0.14218,0.80135 -0.490421,1.58245 -0.989231,2.21886 -0.216873,0.27669 -0.666921,1.09887 -0.666921,1.21836 0,0.029 0.196145,0.35039 0.435871,0.71425 0.336256,0.51036 0.595627,0.82112 1.134866,1.35979 0.882087,0.88113 1.73724,1.45878 2.869693,1.93847 l 0.248116,0.1051 2.540808,-3.07988 c 1.397438,-1.69393 2.869857,-3.51246 3.272031,-4.04117 0.990536,-1.30221 1.43144,-1.84716 2.030506,-2.50966 l 0.507396,-0.56115 -0.631705,-5.4e-4 c -0.699076,-5.5e-4 -1.72271,-0.10166 -2.741214,-0.27076 -3.801632,-0.63117 -7.455052,-2.41984 -10.450046,-5.1162 -2.720396,-2.449157 -4.597969,-5.855847 -4.987747,-9.049827 -0.135941,-1.114 -0.0074,-2.62082 0.309847,-3.64038 l 0.09981,-0.32044 -0.122133,-0.21361 c -0.06715,-0.1175 -0.24833,-0.52605 -0.402552,-0.9079 l -0.28041,-0.69426 0.0041,-0.64088 c 0.01215,-2.03467 1.196441,-3.84909 3.085867,-4.727912 1.807788,-0.840854 3.768485,-0.640785 5.248817,0.535602 1.103459,0.8769 1.909095,2.73776 1.815004,4.19231 -0.11596,1.79252 -1.180163,3.3281 -2.901888,4.18722 -0.410991,0.20507 -1.127896,0.43722 -1.578347,0.51107 -0.260061,0.0426 -0.282053,0.12567 -0.276224,1.0428 0.0041,0.62191 0.02446,0.78701 0.149362,1.20162 0.576089,1.9125 2.327851,4.02698 4.865425,5.87284 1.572815,1.14409 3.023299,1.856827 4.562719,2.242047 0.986776,0.24692 1.635909,0.3433 3.795961,0.56356 3.016173,0.30756 3.876079,0.50023 5.110914,1.1451 l 0.546012,0.28515 0.211857,-0.27458 c 0.311867,-0.40421 1.091473,-1.14659 1.592105,-1.5161 0.24095,-0.17784 0.46462,-0.3322 0.497037,-0.343 0.09354,-0.0312 -0.285697,-4.806417 -0.537646,-6.769987 -0.09905,-0.77194 -0.297239,-1.87027 -0.346353,-1.91938 -0.01207,-0.0121 -0.158639,0.006 -0.32579,0.0392 -0.755628,0.15176 -1.779048,0.0381 -2.555822,-0.28378 -0.234982,-0.0974 -0.532713,-0.21698 -0.661619,-0.26578 -0.331913,-0.12565 -0.623857,-0.33997 -0.997004,-0.7319 -1.86645,-1.96034 -1.871063,-5.2152 -0.0099,-6.97225 0.577854,-0.54552 1.370356,-0.96649 2.209913,-1.17387 0.547875,-0.13532 1.675927,-0.12077 2.230804,0.0288 0.543016,0.14636 1.148879,0.40916 1.55391,0.67399 0.424781,0.27775 1.126303,0.98442 1.405581,1.4159 0.250447,0.38694 0.52342,1.04881 0.616732,1.49534 0.03374,0.16155 0.16161,0.47398 0.284112,0.69428 0.61972,1.11437 1.112275,2.66363 1.432014,4.50414 0.217038,1.24935 0.577461,4.48709 0.700743,6.29487 l 0.03538,0.51848 0.583329,-0.30486 0.583338,-0.30486 1.595282,-1.84695 c 0.975489,-1.12937 1.695112,-1.91596 1.852232,-2.02456 0.247156,-0.17085 0.266841,-0.20427 0.516467,-0.87673 0.321497,-0.86607 0.690818,-1.6988 1.528733,-3.44688 1.098754,-2.29229 1.556019,-3.44756 1.863568,-4.70828 0.634036,-2.59906 0.435207,-5.489069 -0.564531,-8.205829 -0.628627,-1.708246 -1.776594,-3.595407 -2.988846,-4.913365 l -0.258657,-0.281215 -0.352312,0.130498 c -0.618111,0.228956 -1.138831,0.314806 -1.890715,0.311727 -1.076205,-0.0041 -1.956609,-0.274565 -2.919144,-0.895779 -0.468814,-0.302566 -1.220346,-1.042457 -1.537417,-1.513611 -0.678242,-1.007824 -1.076911,-2.22203 -1.089544,-3.318297 -0.0074,-0.652745 0.09087,-0.9687 0.440715,-1.415243 0.115057,-0.146859 0.318984,-0.483312 0.453168,-0.747673 0.66152,-1.303298 1.752066,-2.186173 3.290386,-2.663795 1.007873,-0.312926 1.585662,-0.366112 2.409596,-0.221815 1.193158,0.208959 2.141475,0.728398 3.033724,1.661709 0.261949,0.273991 0.598804,0.697295 0.748585,0.940683 0.627986,1.020449 0.92424,2.240943 0.803231,3.309143 l -0.05541,0.489157 0.47273,0.485486 c 2.287414,2.349096 4.054157,5.576019 4.891767,8.934671 0.420283,1.685252 0.563973,2.72019 0.603762,4.348408 0.044,1.80147 -0.11124,3.20774 -0.542137,4.9103 -0.440157,1.73914 -0.879534,2.86091 -2.096818,5.35324 -0.513775,1.05194 -0.92511,1.92165 -0.914069,1.9327 0.05434,0.0543 6.195141,-1.34297 6.319941,-1.43814 0.13445,-0.10252 2.58974,-7.08036 2.58974,-7.35994 0,-0.0434 -0.13819,-0.16962 -0.30708,-0.28046 -0.45294,-0.29727 -1.17482,-1.06175 -1.46641,-1.55294 -0.66189,-1.11498 -0.84549,-2.476663 -0.49598,-3.678653 0.28939,-0.995215 0.79653,-1.728933 1.63426,-2.364398 0.94739,-0.718646 1.62879,-0.969389 2.75799,-1.014891 0.97283,-0.03924 1.61489,0.09411 2.44338,0.507322 0.50315,0.25094 0.78971,0.451724 1.19436,0.836872 1.34237,1.277645 1.74352,3.118219 1.07827,4.947328 -0.18207,0.5006 -0.65747,1.26722 -1.03033,1.66148 -0.22393,0.23678 -0.2478,0.29306 -0.43552,1.02663 -0.10923,0.42685 -0.34914,1.24146 -0.53315,1.81024 l -0.33454,1.03413 0.2934,0.15362 c 0.3886,0.20346 0.85936,0.64589 1.0396,0.97707 0.17904,0.32895 0.33275,0.91471 0.38403,1.46352 0.0213,0.22764 0.0538,0.4141 0.0725,0.41435 0.0185,2.7e-4 0.29814,0.0236 0.62124,0.0519 0.489,0.0429 3.71678,0.21469 4.03178,0.21469 0.0574,0 0.168,-0.11255 0.27514,-0.28004 0.23951,-0.37443 0.88821,-1.20387 1.31996,-1.68772 0.19254,-0.21577 0.89762,-0.88576 1.56686,-1.48886 0.66925,-0.60311 1.35197,-1.25489 1.51716,-1.44841 l 0.30036,-0.35183 -0.12557,-0.0819 c -0.98449,-0.64205 -1.66692,-1.54374 -2.00209,-2.64535 -0.13256,-0.43571 -0.14647,-0.56054 -0.14871,-1.33514 -0.002,-0.939571 0.0676,-1.316092 0.39285,-2.10495 0.45772,-1.110001 1.45244,-2.121691 2.5035,-2.546234 0.60923,-0.246081 0.95871,-0.310825 1.69069,-0.31323 0.77173,-0.0025 1.26122,0.08573 1.96044,0.353478 2.43133,0.931062 3.54086,3.894123 2.44438,6.527956 -0.22117,0.53131 -0.52438,0.99254 -0.93317,1.41953 -0.3197,0.33395 -0.3351,0.36256 -0.37059,0.68872 -0.0547,0.50283 -0.26324,1.27406 -0.47927,1.77256 -0.49785,1.14883 -1.2387,2.03488 -3.00898,3.59873 -0.33044,0.29192 -0.6008,0.5473 -0.6008,0.56752 0,0.0203 0.0825,0.0996 0.18322,0.1765 0.16647,0.12698 0.23851,0.14207 0.78773,0.165 0.8051,0.0337 1.4342,0.14925 2.19616,0.40362 1.37089,0.45765 2.69495,1.32638 3.46143,2.27107 l 0.27331,0.33688 0.29681,-0.33004 c 1.48935,-1.65613 3.69655,-3.26679 6.17937,-4.50925 1.26995,-0.63551 2.34263,-1.0706 5.10022,-2.0687 4.32119,-1.56405 6.27012,-2.61341 7.93376,-4.27176 1.14186,-1.13822 1.87059,-2.32172 2.19785,-3.56946 0.0821,-0.313148 0.0844,-0.372992 0.0178,-0.477664 -0.47283,-0.743905 -0.68111,-1.18453 -0.87045,-1.841486 -0.11916,-0.413486 -0.14188,-0.450057 -0.37594,-0.605092 -0.72399,-0.47956 -1.15495,-1.500091 -1.00268,-2.374445 0.24406,-1.401501 1.38712,-2.586984 3.01387,-3.125722 0.42204,-0.139774 1.2327,-0.262835 1.74284,-0.264575 0.22029,-6.32e-4 0.5928,-0.03604 0.82778,-0.07856 2.73201,-0.493622 5.32968,1.323803 5.91361,4.137396 0.0856,0.412648 0.10018,0.638436 0.0774,1.202327 -0.0326,0.807812 -0.15388,1.326414 -0.46645,1.994345 -0.27968,0.597654 -0.58779,1.016386 -1.13208,1.538542 -0.6885,0.660478 -1.60829,1.149444 -2.45612,1.305654 l -0.35309,0.0651 -0.16609,0.50086 c -0.62599,1.88783 -1.74286,3.5859 -3.45314,5.25012 -1.32009,1.28454 -2.57991,2.20342 -4.37272,3.18933 -1.16144,0.63872 -2.14131,1.04949 -4.82187,2.02139 -2.16438,0.78473 -2.96932,1.09315 -3.98482,1.5268 -0.98392,0.42016 -2.4781,1.18224 -3.18282,1.62333 -0.71131,0.44522 -1.93517,1.37645 -1.86884,1.42199 0.0145,0.01 0.2787,0.18585 0.58712,0.39087 0.70917,0.47141 1.56986,1.3179 2.02255,1.98914 0.18324,0.2717 0.35165,0.494 0.37425,0.494 0.0226,0 0.19552,-0.13534 0.38426,-0.30076 2.90294,-2.54419 6.55223,-4.65411 11.7452,-6.79075 1.94019,-0.79828 3.51491,-1.38835 16.76927,-6.28376 5.08299,-1.87736 5.55077,-2.0581 6.22489,-2.40527 0.76375,-0.39331 1.16378,-0.67676 1.65249,-1.17086 0.52963,-0.53549 0.78652,-1.00515 0.81771,-1.49504 l 0.0209,-0.32928 -0.30727,-0.09686 c -0.43158,-0.136039 -1.121,-0.500665 -1.50426,-0.795581 -0.46392,-0.356967 -1.02721,-0.988138 -1.28467,-1.439451 -0.63469,-1.112587 -0.4826,-2.261589 0.41647,-3.146508 0.35403,-0.348446 0.36214,-0.362688 0.42585,-0.747673 0.0357,-0.215855 0.13431,-0.608744 0.21911,-0.873106 0.5075,-1.582124 1.57663,-2.481975 3.05977,-2.575311 l 0.48608,-0.03062 1.14821,-0.88056 c 0.63152,-0.484305 1.27813,-0.940855 1.43692,-1.014555 0.81507,-0.378335 1.8932,-0.104221 2.67671,0.68054 0.60473,0.605683 0.92111,1.425595 0.80094,2.075655 -0.0306,0.165641 -0.34384,1.101546 -0.69604,2.079784 l -0.64037,1.778622 v 0.500608 c 0,1.085948 -0.31085,2.026918 -0.94426,2.858273 l -0.29803,0.391199 0.0604,0.432695 c 0.086,0.615435 0.075,1.749729 -0.0223,2.308019 -0.4329,2.48237 -2.37475,4.68646 -5.5783,6.33165 -1.45644,0.74794 -2.63623,1.20831 -5.928,2.31312 -1.33646,0.44856 -2.93462,1.00077 -3.55145,1.22713 -0.61684,0.22635 -2.43128,0.88029 -4.0321,1.45319 -6.84538,2.4498 -10.29716,3.83156 -13.32464,5.33389 -2.47521,1.228267 -4.52582,2.540067 -6.16583,3.944317 -0.4926,0.42178 -0.50089,0.43268 -0.34174,0.44843 0.0897,0.009 0.37699,-0.0584 0.63838,-0.14952 1.67534,-0.58398 3.43249,0.199 3.70591,1.65136 0.03,0.15931 0.0603,0.29371 0.0675,0.29867 0.007,0.005 0.19322,0.1243 0.41351,0.2652 1.16075,0.74246 1.95459,1.99692 2.31657,3.6608 0.0276,0.12681 0.10891,0.15732 1.32641,0.49762 0.71336,0.19941 1.51332,0.39481 1.77767,0.43425 0.53658,0.08 1.97202,0.12917 2.03199,0.0695 0.0213,-0.0211 -0.0946,-0.1823 -0.25736,-0.35814 -0.16281,-0.17585 -0.36434,-0.45896 -0.44786,-0.62914 -0.14074,-0.28681 -0.15168,-0.35434 -0.14948,-0.9236 0.002,-0.53525 0.0204,-0.65875 0.14226,-0.96129 0.0829,-0.20573 0.15305,-0.50771 0.17221,-0.7413 0.0667,-0.81216 0.4585,-1.64448 1.08988,-2.31481 1.53453,-1.62922 3.73471,-2.04192 5.34325,-1.00226 1.22697,0.79303 1.9818,2.19445 1.9818,3.67942 0,1.69824 -0.99011,3.31389 -2.46146,4.01657 -0.34136,0.16303 -0.36423,0.18549 -0.42185,0.4143 -0.35449,1.40783 -1.43597,2.72327 -2.80436,3.41105 -0.81148,0.40787 -1.66118,0.60129 -2.80605,0.63879 -1.01391,0.0332 -1.98121,-0.0653 -2.82586,-0.2876 -0.86245,-0.22705 -0.7976,-0.25834 -0.53045,0.25592 0.41896,0.80649 1.8422,2.8186 3.25086,4.59587 0.73002,0.92105 1.29699,1.74079 1.52179,2.20026 0.10946,0.22374 0.17472,0.30176 0.2364,0.28263 0.0469,-0.0145 0.37678,-0.1468 0.73316,-0.29397 3.95239,-1.6321 8.49188,-2.11895 12.75678,-1.36811 0.41123,0.0724 0.93274,0.1761 1.15892,0.23046 0.43503,0.10453 0.46908,0.0942 0.47047,-0.14327 0.002,-0.32506 0.54727,-1.05513 0.97979,-1.31165 0.12173,-0.0722 0.39259,-0.29986 0.60193,-0.50593 1.60257,-1.57757 3.96807,-1.83104 5.78922,-0.62034 0.34904,0.23205 0.54208,0.40078 1.61789,1.41423 0.65126,0.61351 1.09284,1.35296 1.32353,2.21633 0.15965,0.59747 0.15953,1.53957 -5.3e-4,2.1362 -0.54242,2.02528 -2.49988,3.54977 -4.67835,3.64356 -0.75325,0.0324 -1.25347,-0.0342 -1.91182,-0.2548 -0.27734,-0.0929 -0.58475,-0.15805 -0.74813,-0.15852 -0.42351,-0.002 -0.88702,-0.13108 -1.61071,-0.45133 -2.20327,-0.975 -4.3508,-1.41545 -6.90671,-1.41655 -1.75638,-6.3e-4 -3.16794,0.18059 -4.76412,0.61206 -0.98236,0.26555 -0.9476,0.24639 -0.99129,0.54627 -0.0703,0.48284 -0.23944,0.80396 -0.91223,1.73227 -1.23203,1.69998 -1.81625,2.65487 -2.26649,3.70445 -0.30006,0.69949 -0.29711,0.7708 0.0875,2.10951 0.15345,0.53404 0.0445,1.20025 -0.28229,1.72541 -0.20729,0.33314 -0.15082,0.3841 0.4257,0.3841 0.68092,0 1.11654,0.16471 1.83342,0.69321 0.10065,0.0742 0.17811,0.0673 0.85448,-0.0759 1.68265,-0.35624 3.08471,-0.49157 5.09634,-0.49193 3.71164,-6.3e-4 6.47024,0.44875 12.33664,2.00985 5.14308,1.36862 7.24249,1.77613 10.06691,1.95407 2.02059,0.12729 3.65663,-0.0575 5.75134,-0.64945 1.80384,-0.50979 3.52341,-1.33678 4.33034,-2.0826 l 0.25511,-0.23578 -0.16798,-0.42724 c -0.31475,-0.80051 -0.43072,-1.36535 -0.46049,-2.24303 -0.0419,-1.23449 0.1563,-2.14862 0.69337,-3.19838 0.59951,-1.17179 1.39571,-1.68416 2.51922,-1.62116 0.52881,0.0296 0.91231,0.14888 1.32921,0.41328 0.22671,0.14377 0.27587,0.15533 0.47804,0.11243 0.12394,-0.0263 0.5294,-0.064 0.90104,-0.0838 0.75707,-0.0402 1.10415,0.0191 1.77089,0.3028 1.49681,0.63695 2.49428,1.80119 2.89626,3.38053 0.42256,1.66015 0.0427,3.42856 -1.00301,4.66924 -1.01473,1.20394 -2.743,1.9 -4.47398,1.80189 l -0.56139,-0.0318 -0.37321,0.42637 c -1.82216,2.08173 -4.70207,3.56993 -8.25049,4.26346 -1.36949,0.26767 -2.65162,0.37845 -4.3884,0.37918 -1.8748,6.2e-4 -3.38003,-0.13032 -5.54313,-0.48278 -1.79487,-0.29245 -3.33572,-0.65337 -6.8536,-1.6053 -4.45604,-1.2058 -6.45455,-1.63644 -8.79605,-1.89537 -0.8574,-0.0948 -2.97814,-0.15916 -3.47875,-0.10556 l -0.35436,0.038 0.18101,0.26896 c 0.62211,0.92448 0.41134,2.34204 -0.49038,3.2979 -0.35495,0.37629 -0.85192,0.6864 -1.27815,0.7976 -0.1175,0.0306 -0.52605,0.0826 -0.9079,0.1155 -1.84735,0.15905 -2.78415,0.56877 -2.76598,1.20975 0.007,0.24055 0.20672,0.5643 0.7423,1.20226 0.5118,0.60964 0.79847,1.06582 1.06114,1.68861 0.324,0.76824 0.562,1.75815 0.562,2.33752 v 0.28583 l 0.31877,0.21647 c 0.53976,0.36654 1.35293,1.03608 1.92622,1.58598 0.71197,0.68294 1.48431,1.55077 3.12854,3.51537 2.72907,3.26081 4.12454,4.58367 5.80345,5.50146 l 0.36238,0.1981 0.27848,-0.26216 c 0.67288,-0.63346 1.37237,-0.96946 2.27209,-1.09139 0.35507,-0.0481 0.53604,-0.10491 0.77616,-0.2436 1.93876,-1.11975 4.28103,-0.88282 6.0588,0.61285 0.59713,0.50237 1.16058,1.35623 1.3994,2.12062 0.1462,0.46796 0.20279,1.47291 0.11044,1.96105 -0.198,1.04644 -0.73576,2.09472 -1.46968,2.86489 -0.85535,0.8976 -1.89381,1.34275 -3.12766,1.34071 -0.30841,-5.5e-4 -0.66041,-0.024 -0.7822,-0.052 -0.17612,-0.0407 -0.28156,-0.0305 -0.5152,0.05 -0.92576,0.31852 -2.15476,0.27334 -3.21916,-0.11834 -0.75546,-0.27799 -1.59058,-0.90452 -2.0488,-1.53707 -0.14211,-0.19617 -0.23485,-0.25617 -0.63242,-0.40911 -2.25015,-0.8656 -4.66885,-2.62472 -6.8109,-4.95357 -0.35167,-0.38235 -1.18139,-1.34406 -1.84382,-2.13713 -0.66242,-0.79307 -1.4614,-1.73033 -1.77548,-2.0828 -0.7607,-0.85366 -1.86006,-1.92298 -1.91571,-1.86334 -0.0244,0.0262 -0.22454,0.28787 -0.44473,0.5816 -0.49515,0.66052 -0.84825,1.07032 -4.44452,5.15807 -1.58615,1.8029 -2.94063,3.34515 -3.00997,3.42723 -0.11529,0.13648 -0.12006,0.16374 -0.0559,0.3187 0.0917,0.22145 0.4111,0.52798 0.88054,0.8451 0.20797,0.14051 0.49636,0.39142 0.64086,0.55757 0.14449,0.16615 0.50899,0.56571 0.80999,0.88788 1.41943,1.51927 2.65011,3.17002 3.81769,5.1208 0.77964,1.30262 1.18973,2.08011 2.62481,4.97637 1.67935,3.38927 2.36024,4.61782 3.45768,6.23875 0.72177,1.06606 1.33435,1.82333 2.15392,2.66262 0.99426,1.01821 1.98545,1.78459 2.90918,2.24937 l 0.34342,0.17279 0.40424,-0.0857 c 0.96718,-0.20506 1.71863,-0.15917 2.67692,0.16348 l 0.56371,0.1898 0.37089,-0.18652 c 0.85142,-0.42817 1.77067,-0.60847 2.82754,-0.55459 1.08941,0.0556 1.49428,0.20987 1.99872,0.76181 0.48956,0.53565 0.75165,1.20696 0.75165,1.92526 0,0.84597 -0.24419,2.14633 -0.56125,2.98865 -0.70404,1.87045 -2.2603,3.6391 -3.49456,3.97146 -0.32161,0.0866 -1.04208,0.0762 -1.35633,-0.0197 l -0.25854,-0.0788 -0.29963,0.19168 c -0.76476,0.48921 -1.72293,0.73963 -2.65189,0.69306 -0.71502,-0.0358 -1.22067,-0.17159 -1.84318,-0.49482 -1.45164,-0.75373 -2.55394,-2.13966 -2.86364,-3.60047 -0.12148,-0.57299 -0.0926,-1.52814 0.0617,-2.03875 0.0194,-0.064 -0.11212,-0.18487 -0.4809,-0.44198 -2.13465,-1.48831 -4.25315,-3.75623 -6.03661,-6.46242 -1.03881,-1.57627 -1.59031,-2.56705 -3.01829,-5.42229 l -1.06905,-2.13812 h -0.4482 c -0.58612,0 -1.04401,-0.14152 -1.46815,-0.45375 -0.50165,-0.3693 -0.71098,-0.70148 -1.12754,-1.78928 -0.3989,-1.04168 -1.27689,-2.51319 -1.64714,-2.76062 -0.66503,-0.44442 -1.64807,-0.45618 -2.49174,-0.0298 -1.09078,0.55126 -1.95036,1.56429 -2.59906,3.06297 -0.31555,0.72903 -0.59835,1.61918 -0.9569,3.01189 -0.17522,0.68067 -0.38719,1.37332 -0.47541,1.55354 -0.45519,0.92985 -1.72022,1.49371 -2.7314,1.21747 -0.0704,-0.0192 -0.0943,0.0354 -0.12485,0.28487 -0.093,0.76093 -0.37955,2.35663 -0.77589,4.32117 -0.89095,4.41617 -1.08492,5.9787 -1.0864,8.75137 -0.002,3.06679 0.4282,5.26045 1.43363,7.31653 0.99213,2.02891 2.30166,3.37211 4.16536,4.27248 1.1864,0.57315 2.25066,0.80945 3.41277,0.75773 0.92023,-0.041 1.36467,-0.16027 1.7766,-0.47693 0.96201,-0.73951 2.35926,-1.37647 3.01623,-1.37502 0.8256,0.002 1.72705,0.55564 2.17172,1.33421 0.13316,0.23316 0.21256,0.30111 0.55897,0.47826 0.63969,0.32713 1.0419,0.62313 1.59394,1.17297 0.79218,0.78904 1.23418,1.53322 1.57636,2.65408 0.13298,0.43565 0.14504,0.54954 0.14627,1.38265 0.002,0.83526 -0.0102,0.94635 -0.14328,1.38854 -0.17396,0.57812 -0.54194,1.33091 -0.85272,1.7444 -0.41445,0.55142 -1.18126,1.34201 -1.61449,1.66455 -0.55473,0.41301 -1.35961,0.80153 -2.0294,0.97962 -0.46848,0.12457 -0.63897,0.14238 -1.38854,0.14505 -0.71345,0.002 -0.93241,-0.0166 -1.32658,-0.11586 -0.59898,-0.15087 -1.19229,-0.38684 -1.64388,-0.65384 -0.19449,-0.11498 -0.47086,-0.24814 -0.61417,-0.29591 -0.75725,-0.25241 -1.2846,-0.84838 -1.72193,-1.94596 -0.23423,-0.58789 -0.59623,-2.04385 -0.63185,-2.54134 l -0.0309,-0.43184 -0.56409,-0.0656 c -6.18076,-0.71845 -10.90401,-5.78541 -12.12817,-13.01072 -0.24859,-1.46728 -0.28626,-1.99934 -0.30245,-4.27127 -0.0126,-1.78059 -0.0328,-2.28939 -0.10791,-2.72367 -0.0741,-0.429 -0.0946,-0.9177 -0.10393,-2.48424 -0.0105,-1.77188 -0.0224,-2.00378 -0.12971,-2.53674 -0.45315,-2.25079 -1.50255,-3.81521 -3.09796,-4.6184 -0.73713,-0.37111 -0.67477,-0.36945 -2.03342,-0.0538 -0.65869,0.15306 -1.25075,0.31175 -1.31569,0.35267 -0.0649,0.041 -0.21188,0.21262 -0.32654,0.38159 -0.4807,0.70845 -0.83086,1.60201 -1.102,2.81211 -0.19504,0.87052 -1.22546,7.05614 -1.36202,8.17617 -0.24549,2.01362 -0.48536,3.54919 -0.85508,5.47405 -0.2705,1.40824 -0.83349,5.18378 -1.60464,10.76118 -0.24474,1.7701 -0.26679,2.0066 -0.21163,2.26973 0.10777,0.51414 0.53077,1.72643 0.76288,2.18638 0.21791,0.4318 0.23276,0.44774 0.52438,0.56217 0.16508,0.0648 0.41742,0.19282 0.56077,0.28456 0.14334,0.0917 0.45264,0.28195 0.68734,0.42268 0.55373,0.33204 1.32666,1.09192 1.61835,1.59102 0.24979,0.42741 0.45968,1.01743 0.54144,1.52206 0.0796,0.49144 0.0688,1.56463 -0.02,1.98362 -0.23391,1.10358 -0.92131,2.10907 -1.88961,2.76401 -0.40888,0.27658 -0.77908,0.44438 -1.39047,0.63028 -0.40424,0.12293 -0.55722,0.14063 -1.23573,0.14301 -0.86824,0.003 -1.18924,-0.0609 -1.86066,-0.37081 -0.88623,-0.40902 -1.65819,-1.14664 -2.09227,-1.99921 -0.17937,-0.35229 -0.58326,-1.45313 -0.72498,-1.976 -0.24032,-0.88662 -0.14475,-2.00558 0.24463,-2.86432 0.089,-0.19627 0.15557,-0.36117 0.14797,-0.36645 -0.007,-0.005 -0.15169,-0.0998 -0.3202,-0.20993 -0.59382,-0.38825 -0.98988,-0.95302 -1.11115,-1.58448 -0.0466,-0.2426 -0.0271,-0.49311 0.12192,-1.57037 0.12561,-0.90764 0.16549,-1.35106 0.13667,-1.51925 -0.21841,-1.27437 -0.32732,-3.46738 -0.25434,-5.1212 0.0966,-2.18946 0.29326,-3.68999 0.99144,-7.56538 0.76421,-4.24189 0.95426,-5.88873 0.9522,-8.25113 -0.002,-1.31602 -0.0206,-1.71795 -0.11826,-2.44075 -0.18377,-1.36052 -0.55009,-2.95319 -0.67924,-2.95319 -0.0377,0 -0.36549,0.0709 -0.72847,0.15756 -1.38904,0.33161 -3.18114,0.66716 -6.45165,1.20801 -1.86365,0.30819 -3.39673,0.56863 -3.40685,0.57875 -0.0219,0.0219 0.4775,9.13681 0.628,11.46043 0.21885,3.3787 0.25541,4.9214 0.15649,6.60298 -0.17547,2.98321 -0.70502,5.11878 -1.78883,7.21412 -0.71064,1.37386 -1.51581,2.55824 -3.313977,4.87477 -2.182946,2.81224 -2.813518,3.72037 -3.415417,4.91881 -0.272521,0.54264 -0.611387,1.38206 -0.611387,1.51452 0,0.0547 0.05081,0.0821 0.151669,0.0821 0.08343,0 0.341772,0.0486 0.57411,0.10804 1.612087,0.41227 2.811344,1.67067 3.257271,3.41792 0.146719,0.57492 0.135169,1.68035 -0.02364,2.26565 -0.393383,1.44946 -1.367763,2.46779 -2.739671,2.86322 -0.528896,0.15246 -1.52856,0.18752 -2.047482,0.0718 z m 37.71009,-81.66584 c 0.10298,-0.0681 0.2368,-0.37859 0.34421,-0.79856 0.18945,-0.74073 0.11868,-1.70533 -0.19397,-2.64415 -0.14169,-0.42544 -0.20687,-0.51916 -0.29785,-0.42818 -0.0341,0.0342 -0.0225,0.16152 0.0335,0.36651 0.10247,0.37535 0.16636,1.47044 0.10028,1.71909 -0.0464,0.17453 -0.0522,0.16697 -0.51402,-0.66757 -1.01742,-1.83856 -1.61244,-2.66665 -2.67881,-3.72812 -0.8974,-0.89327 -1.50792,-1.34064 -2.51363,-1.84191 -0.80909,-0.40325 -1.43908,-0.63115 -2.25593,-0.81605 -0.4775,-0.10809 -0.66207,-0.11801 -2.20341,-0.11848 -1.78937,-5.3e-4 -2.2815,0.0411 -3.84519,0.32549 -3.23466,0.58825 -6.86282,2.03497 -9.66286,3.85302 -1.2135,0.78791 -2.06734,1.46438 -3.28206,2.60022 l -0.74179,0.69363 -0.1559,-0.18498 c -0.0857,-0.10174 -0.34784,-0.46736 -0.58244,-0.81249 -0.45181,-0.66465 -0.60656,-0.78801 -0.52323,-0.4171 0.18578,0.82683 0.80236,1.77231 1.56936,2.40645 0.45485,0.37607 0.58145,0.45157 0.68843,0.41051 0.14433,-0.0554 0.0987,-0.20741 -0.13303,-0.44356 l -0.21986,-0.22402 0.14682,-0.31206 c 0.0808,-0.17163 0.2947,-0.50432 0.47545,-0.7393 0.18076,-0.23498 0.37371,-0.49934 0.42879,-0.58746 0.23954,-0.38319 0.73146,-0.88791 1.16317,-1.19348 3.39597,-2.40358 7.77292,-4.11988 11.92396,-4.67567 3.61333,-0.48378 5.98629,-0.0398 8.19772,1.53383 0.62477,0.44458 1.90818,1.74232 2.47566,2.5033 0.72338,0.97006 1.3465,1.98324 1.5277,2.48402 0.1798,0.49688 0.40319,1.27305 0.45408,1.57767 0.0332,0.19891 0.13015,0.25513 0.27483,0.1594 z m -0.24202,-0.95158 c 0.002,-0.0622 0.0152,-0.0749 0.0323,-0.0323 0.0154,0.0385 0.0135,0.0846 -0.004,0.10237 -0.0177,0.0177 -0.0304,-0.0138 -0.0281,-0.0701 z m -12.78973,-2.10774 c 0.17346,-0.0603 0.39948,-0.13505 0.50229,-0.16627 0.10281,-0.0312 0.30708,-0.11761 0.45394,-0.19198 0.14688,-0.0744 0.5773,-0.26357 0.9565,-0.42043 0.65877,-0.2725 1.53633,-0.74045 2.65881,-1.41781 l 0.51781,-0.31246 0.87074,-0.0666 0.87073,-0.0666 v -0.13145 c 0,-0.113 -0.0337,-0.13827 -0.24032,-0.18002 -0.43937,-0.0888 -1.90272,-0.0665 -2.42136,0.0369 -1.39528,0.27809 -2.66366,0.93197 -3.67534,1.89471 -0.42639,0.40577 -0.9528,1.01388 -0.9528,1.10069 0,0.0561 0.13992,0.032 0.459,-0.0787 z m 8.71737,-8.24771 c -0.01,-0.0275 -0.18444,-0.19591 -0.38866,-0.37423 -0.60642,-0.52954 -1.11452,-1.19539 -1.46739,-1.92293 -0.86107,-1.77539 -1.55255,-3.88824 -1.55255,-4.74393 0,-0.36355 0.002,-0.37074 0.27323,-0.69561 0.15027,-0.18054 0.29046,-0.33492 0.31153,-0.34308 0.0211,-0.008 0.0661,0.0779 0.10003,0.1912 0.0743,0.24785 0.5839,1.29597 0.78524,1.61492 0.0792,0.12549 0.14906,0.26236 0.15519,0.30417 0.007,0.0419 0.0335,0.0921 0.0608,0.11179 0.0273,0.0197 0.22947,0.2761 0.44924,0.56983 0.4813,0.64325 1.59795,1.77787 2.30451,2.34157 0.28296,0.22575 0.8215,0.6142 1.19674,0.86321 0.62068,0.4119 0.7044,0.45218 0.92747,0.44625 0.13486,-0.004 0.45863,0.0326 0.71949,0.0805 0.98813,0.18122 2.17733,0.0831 3.23522,-0.2668 0.54904,-0.18164 1.44565,-0.61418 1.56087,-0.75301 0.11743,-0.14151 -0.003,-0.12067 -0.36466,0.063 -1.08555,0.55149 -2.43436,0.79701 -3.71207,0.6757 -0.36164,-0.0343 -0.67663,-0.0815 -0.69996,-0.10484 -0.0789,-0.0789 3.61449,-1.90609 6.3422,-3.13753 0.67557,-0.30499 1.26437,-0.57877 1.30842,-0.60838 0.044,-0.0296 0.13273,-0.0767 0.19703,-0.10455 0.15832,-0.0687 0.17015,-0.0955 0.56678,-1.28467 0.39949,-1.19774 0.7732,-2.64389 0.95214,-3.68446 0.10843,-0.63059 0.12398,-0.8984 0.12401,-2.13622 4e-5,-1.27354 -0.0121,-1.47075 -0.1213,-1.96957 -0.28167,-1.28678 -0.76533,-2.41953 -1.43935,-3.37097 -0.45206,-0.63813 -1.39107,-1.58142 -2.00308,-2.01222 -0.25782,-0.18148 -0.72945,-0.46332 -1.04809,-0.6263 -1.44563,-0.73945 -2.77305,-0.94692 -3.81651,-0.59648 -0.20957,0.0703 -0.38736,0.12177 -0.39511,0.1142 -0.0364,-0.0356 1.62017,-1.75695 2.4747,-2.57142 1.81727,-1.73206 3.70623,-3.40986 3.76818,-3.34695 0.0707,0.0717 0.30144,0.93989 0.33743,1.26924 0.0525,0.48027 0.0768,0.56021 0.17024,0.56021 0.0749,0 0.0812,-0.0646 0.0511,-0.5207 -0.0189,-0.28639 -0.0473,-0.85716 -0.063,-1.26838 l -0.0287,-0.74767 0.48395,-0.52621 c 0.26616,-0.28943 0.48394,-0.53852 0.48394,-0.55355 0,-0.015 -0.0541,0.008 -0.12016,0.0507 -0.0661,0.0429 -0.48066,0.30322 -0.92125,0.57841 -1.67373,1.04534 -3.84078,2.53841 -5.07055,3.49352 -2.39777,1.86225 -4.64728,4.19354 -6.88064,7.13081 -0.32385,0.4259 -0.61799,0.80641 -0.65366,0.84555 -0.0525,0.0576 -0.16934,-0.0619 -0.61356,-0.62751 -0.376,-0.47877 -0.58222,-0.69869 -0.65515,-0.69869 -0.11851,0 -0.12104,-0.0634 0.0394,0.988 0.41782,2.73757 -0.21417,6.13659 -1.68486,9.06163 -0.20703,0.41178 -0.20838,0.4185 -0.15667,0.77709 0.0646,0.448 0.18323,0.8698 0.5523,1.96387 0.6422,1.90381 1.19461,2.97374 2.06935,4.00799 0.65596,0.77558 1.9756,1.83733 1.85626,1.49348 z m 2.34489,-2.60512 c -0.95497,-0.55286 -1.52096,-0.98697 -2.31384,-1.77472 -0.60974,-0.6058 -1.45714,-1.61159 -1.4625,-1.73585 -0.002,-0.0383 1.05732,-1.54301 1.36249,-1.93599 l 0.25661,-0.33042 0.14324,0.4256 c 0.41186,1.22372 1.15265,2.14697 2.10974,2.62937 0.441,0.22228 0.71688,0.28802 1.20871,0.28802 2.02522,0 3.30384,-2.41045 2.68776,-5.06695 -0.18697,-0.80619 -0.62431,-1.65916 -1.13169,-2.20719 l -0.30147,-0.32562 0.15621,-0.12498 c 0.27016,-0.21611 1.82555,-1.20301 2.82649,-1.7934 1.66593,-0.98262 4.1468,-2.35473 4.21088,-2.32894 0.0832,0.0335 0.42366,0.86279 0.5901,1.43733 0.20567,0.70997 0.3003,1.32468 0.33515,2.17689 0.0757,1.852 -0.33925,3.89386 -1.35228,6.65409 l -0.23708,0.64598 -0.9189,0.36187 c -1.97558,0.778 -3.99635,1.67107 -6.12101,2.70514 -0.71694,0.34894 -1.34178,0.63403 -1.38854,0.63355 -0.0467,-5.4e-4 -0.34379,-0.15069 -0.66007,-0.33378 z m -4.74693,-5.3131 c -0.24012,-0.57509 -0.51925,-1.44504 -0.56071,-1.74757 -0.0188,-0.13726 -0.004,-0.27473 0.0361,-0.35097 0.21667,-0.40485 0.60633,-1.79535 0.7476,-2.66775 0.0582,-0.35902 0.1013,-0.45314 0.41636,-0.90789 0.60482,-0.87299 0.90859,-1.27181 1.9321,-2.53675 0.54664,-0.67558 1.1596,-1.44462 1.36213,-1.70897 1.37284,-1.79193 2.3618,-2.64125 3.52456,-3.02692 0.3292,-0.1092 0.47267,-0.12358 1.20162,-0.12045 0.74202,0.003 0.87759,0.0186 1.30843,0.14909 1.31899,0.39936 2.67601,1.32902 3.57766,2.45096 0.34465,0.42883 0.86227,1.20529 0.82175,1.23267 -0.0111,0.007 -0.33259,0.15399 -0.71444,0.32551 -1.34382,0.60366 -3.91877,1.95372 -4.68969,2.45885 -0.30649,0.20083 -0.11679,0.0183 0.48402,-0.46579 0.49176,-0.3962 2.38344,-2.06978 2.65692,-2.35059 0.0852,-0.0875 -0.006,-0.0304 -1.71818,1.07945 -0.88624,0.57436 -1.81138,1.15244 -2.05583,1.28462 -0.61368,0.3318 -1.9168,1.20628 -2.71578,1.82248 -1.89585,1.46213 -3.57007,3.13959 -4.87045,4.87989 -0.26338,0.35248 -0.49468,0.64681 -0.51401,0.65408 -0.0193,0.007 -0.12293,-0.19702 -0.2302,-0.45395 z m -21.38025,6.31305 c 0.26461,-0.0406 0.68517,-0.13516 0.9346,-0.21007 0.24942,-0.0749 0.7396,-0.18609 1.08929,-0.24707 4.38271,-0.76428 8.03426,-3.58096 9.18836,-7.08755 0.0514,-0.15611 0.10704,-0.27022 0.1237,-0.25357 0.0167,0.0167 0.27573,0.46882 0.57573,1.00482 0.73627,1.31542 0.73058,1.31389 1.66923,0.44652 2.29598,-2.12166 3.80749,-4.46792 4.44761,-6.9039 0.17627,-0.67081 0.17715,-0.81922 0.005,-0.81922 -0.0814,0 -0.13838,0.11766 -0.29737,0.61363 -0.34183,1.06635 -0.21674,0.91997 -1.71108,2.00235 -0.73227,0.53039 -1.34786,0.94583 -1.36801,0.9232 -0.0201,-0.0226 -0.23627,-0.3175 -0.48031,-0.65529 -2.88366,-3.99161 -6.56831,-7.92797 -9.15693,-9.7825 -1.87002,-1.33972 -4.20481,-2.34854 -6.10398,-2.63743 -0.73959,-0.11251 -1.9651,-0.11169 -2.6011,0.002 -1.069943,0.19079 -2.727859,0.88832 -3.25371,1.36892 -0.348824,0.31881 -0.317474,0.43161 0.03579,0.12879 0.284687,-0.24404 0.86837,-0.53225 1.322022,-0.6528 0.484954,-0.12887 1.630565,-0.12601 2.241588,0.006 1.36837,0.29472 3.01562,1.13386 4.74561,2.4175 0.68741,0.51005 1.61285,1.26226 1.58599,1.28911 -0.009,0.009 -0.20056,-0.0208 -0.4247,-0.0671 -2.44538,-0.50509 -5.49037,0.14848 -7.774643,1.66878 -2.475046,1.64724 -3.959277,4.41649 -4.599979,8.58251 -0.08758,0.56949 -0.08741,2.1392 5.33e-4,2.64356 0.217645,1.25154 0.552193,2.04387 1.104624,2.61609 0.583674,0.60457 1.149847,0.85531 3.014409,1.33493 0.660888,0.17 2.303326,0.62721 3.649856,1.01602 2.22569,0.64266 2.45587,0.69929 2.53217,0.623 0.19316,-0.19315 0.21092,-0.18654 -3.24474,-1.21077 -2.328304,-0.6901 -4.186027,-1.29282 -4.56616,-1.48146 -0.93964,-0.46628 -1.540479,-1.36244 -1.770716,-2.64104 -0.0614,-0.34115 -0.08844,-0.77355 -0.08609,-1.37828 0.0091,-2.33884 0.785574,-5.16689 1.891635,-6.88945 0.171157,-0.26656 0.223867,-0.3072 0.572707,-0.44157 0.5633,-0.21698 1.061855,-0.30596 1.714394,-0.30596 1.75829,0 3.39377,0.80786 5.70352,2.81727 l 0.69076,0.60095 -0.36178,0.37346 c -0.66304,0.68441 -1.12349,1.50922 -1.36794,2.4504 -0.17801,0.68543 -0.18792,1.59596 -0.0241,2.21203 0.68823,2.58758 3.57278,3.12555 5.66637,1.05677 0.22557,-0.2229 0.5024,-0.54429 0.6152,-0.71421 0.11279,-0.16993 0.22295,-0.29009 0.24481,-0.26703 0.24278,0.25618 1.91337,2.40527 1.90072,2.44517 -0.0286,0.0904 -0.79787,0.73414 -1.30438,1.09165 -1.34803,0.95142 -2.97979,1.69611 -4.68579,2.13845 -1.64736,0.42713 -3.73741,0.63198 -4.96767,0.48688 -1.12813,-0.13304 -2.30189,-0.44963 -3.307851,-0.89219 -0.72078,-0.3171 -0.798339,-0.21989 -0.102563,0.12857 1.946561,0.97485 4.265354,1.3615 6.295724,1.04977 z m 6.83543,-7.90555 -2.29642,-2.64048 -1.9226,-1.75057 c -1.63382,-1.48763 -3.945,-3.43326 -4.00116,-3.36832 -0.009,0.0107 0.42535,0.51111 0.96573,1.11207 0.54039,0.60095 1.05836,1.17773 1.15107,1.28173 0.0927,0.10399 0.36191,0.40537 0.59824,0.66973 0.4603,0.51489 0.45484,0.51305 -0.23593,-0.0788 -1.67445,-1.43478 -3.25323,-2.32438 -4.70726,-2.65243 -0.247278,-0.0557 -0.640431,-0.0896 -1.060525,-0.0911 -0.736837,-0.002 -1.191672,0.0934 -1.845377,0.38983 l -0.34591,0.15685 0.251499,-0.33081 c 0.138321,-0.18196 0.48226,-0.55913 0.764304,-0.83817 1.38414,-1.36942 3.136869,-2.19942 5.367809,-2.54193 0.78718,-0.12086 2.53249,-0.12384 3.44464,-0.006 l 0.66758,0.0863 0.93458,0.95222 c 1.66755,1.69901 3.12714,3.61161 4.73828,6.20893 0.6846,1.10363 1.56356,2.64948 1.56356,2.74986 0,0.15028 -0.37554,1.10318 -0.67693,1.71766 -0.29172,0.59474 -0.9073,1.57329 -1.00637,1.59978 -0.0288,0.007 -1.08577,-1.17422 -2.34881,-2.62649 z m 12.3154,-12.18127 c 0.78633,-1.62925 1.33867,-2.50988 2.38039,-3.79504 0.38961,-0.48067 0.43619,-0.60223 0.23075,-0.60223 -0.22361,0 -1.84681,1.9538 -2.44027,2.9373 -0.28683,0.47531 -0.70651,1.3076 -0.81208,1.61043 l -0.0618,0.17736 -0.37007,-0.81783 c -0.65254,-1.4421 -1.15451,-2.27773 -2.01026,-3.3465 -0.45457,-0.56773 -1.74406,-1.89665 -1.94442,-2.00389 -0.24463,-0.13092 -0.0973,0.0809 0.52082,0.74887 1.90872,2.06261 3.05161,3.89214 3.51645,5.62914 0.0704,0.2628 0.15853,0.49725 0.19597,0.52103 0.2026,0.12856 0.25573,0.0578 0.79454,-1.05864 z m -0.35223,-3.37003 c 0.0296,-0.0216 0.23384,-0.31477 0.45394,-0.65152 0.49709,-0.76057 0.91689,-1.29713 1.42901,-1.82642 0.40001,-0.41345 0.4702,-0.58266 0.25858,-0.62341 -0.19865,-0.0383 -1.45164,1.31025 -2.01044,2.16371 l -0.25099,0.38333 -0.30579,-0.56097 c -0.62411,-1.14494 -1.2738,-1.96356 -2.19816,-2.76975 -0.68802,-0.60004 -0.60615,-0.38336 0.14651,0.3878 0.39418,0.40388 0.87741,0.95062 1.07384,1.21497 0.40448,0.54438 0.83136,1.32845 1.00313,1.84249 0.154,0.4609 0.24078,0.55622 0.40037,0.43977 z"
       id="path86131"
       inkscape:connector-curvature="0"
       sodipodi:nodetypes="ccccccsscccccccccscccccccccccscsccscccccccccccccccccccccccccccccccccccccccccsccccccsccccccsccsccccccccscccccccscccccccccccccscccccccccccccccccccccccccscssccccccsssccccccccccccccccccsscsscccccccccccccscccccccccsccsccscccccscccccsccccccccccccccccccccscccccscccscccccccscccccccccccccccccsccccccccccccccccccccscscccccccccccccccccsccsccccccccccccccscsscccccccccccccccccccccscscccccscssccccccsccccccsccccsccccscsscccccccccscsccccccsccccccccccccccccccccccccscscccscccscccccccccccccccccccccccccccccccsccscccccccccsccccccccccccccccccsscccccccccsccccccccccsccsscccccccccccscccccccccccccccccccccccccccccccscccsccccccccccccccccccccssccccccscsscccccccccsccccscccccccccscccccccccccccccccccccccccccscccscccccscccccscccccccccsccccsscccccccccsccccsccccccscccccccsccccccscccccccccccccscccccccscccccccccccccccccccscccsccccsccccccccccccccscccccccscccsccccccccccccccsccscccccccccccscsccccccscccccccccccccccccccsccc" />
  </g>
</svg>
